# xmcd
#
# Track frame offsets: 
#        150
#        10358
#        23848
#        35513
#        46075
#        58455
#        70175
#        82930
#        95200
#        106928
#        118470
#        129910
#        140983
#        151310
#
# Disc length: 2227 seconds
#
# Revision: 5
# Processed by: cddbd v1.5.1PL0 Copyright (c) Steve Scherf et al.
# Submitted via: ExactAudioCopy v0.95a5
#
DISCID=c508b10e
DTITLE=John Lee Hooker - This is Hip
DYEAR=1992
DGENRE=Blues
TTITLE0=Dimples
TTITLE1=Every Night
TTITLE2=Little Wheel
TTITLE3=Maudie
TTITLE4=I'm in the Mood
TTITLE5=Boogie Chillun
TTITLE6=Hobo Blues
TTITLE7=Crawlin' Kingsnake
TTITLE8=Solid Sender
TTITLE9=Will the Circle be Unbroken
TTITLE10=Boom Boom
TTITLE11=This is Hip
TTITLE12=Big Legs, Tight Skirt
TTITLE13=It Serves Me Right to Suffer
EXTD=\nYEAR: 2000  ID3G:  17
EXTT0=
EXTT1=
EXTT2=
EXTT3=
EXTT4=
EXTT5=
EXTT6=
EXTT7=
EXTT8=
EXTT9=
EXTT10=
EXTT11=
EXTT12=
EXTT13=
PLAYORDER=
